<svg xmlns="http://www.w3.org/2000/svg" width="100" height="100" viewBox="0 0 100 100">
  <g id="Group_3642" data-name="Group 3642" transform="translate(-15483 -9435.1)">
    <g id="Group_3640" data-name="Group 3640" transform="translate(15400 9285)">
      <path id="Path_4760" data-name="Path 4760" d="M183,200.1a50,50,0,1,1-50-50A50.018,50.018,0,0,1,183,200.1Z" fill="#2081e2"/>
    </g>
    <g id="Group_3641" data-name="Group 3641" transform="translate(15400 9285)">
      <path id="Path_4762" data-name="Path 4762" d="M165.6,205.6v3.2c0,.2-.1.3-.3.4-1,.4-4.5,2-5.9,4-3.7,5.1-6.5,12.4-12.7,12.4H120.6a16.751,16.751,0,0,1-16.7-16.8v-.3a.43.43,0,0,1,.4-.4H119a.536.536,0,0,1,.5.5,5.568,5.568,0,0,0,.5,2.8,5.084,5.084,0,0,0,4.6,2.8h7.2v-5.6h-7.1a.449.449,0,0,1-.4-.7,1.38,1.38,0,0,0,.3-.4c.7-1,1.6-2.4,2.6-4.1a24.191,24.191,0,0,0,1.8-3.6,4.876,4.876,0,0,0,.3-.7c.1-.4.3-.8.4-1.1l.3-.9a16.857,16.857,0,0,0,.3-3.3,7.084,7.084,0,0,0-.1-1.4c0-.5-.1-1-.1-1.5a5.852,5.852,0,0,0-.2-1.3,14.158,14.158,0,0,0-.4-2l-.1-.2a6.468,6.468,0,0,0-.4-1.3,37.308,37.308,0,0,0-1.4-4l-.6-1.5c-.3-.7-.6-1.4-.9-2-.1-.3-.3-.5-.4-.8s-.3-.6-.4-.9l-.3-.6-.9-1.6c-.1-.2.1-.5.3-.4l5.5,1.5.7.2.8.2.3.1V173a2.883,2.883,0,0,1,2.8-2.9,2.734,2.734,0,0,1,2.8,2.8v4.8l.6.2a.1.1,0,0,1,.1.1,3.807,3.807,0,0,0,.6.5,4.35,4.35,0,0,0,.7.6c.5.4,1.2,1,1.9,1.6.2.2.4.3.5.5a39.564,39.564,0,0,1,2.9,2.9c.3.3.5.6.8.9s.5.7.8,1c.3.4.7.9,1,1.3a4.348,4.348,0,0,1,.4.7c.4.6.7,1.2,1.1,1.8.1.3.3.6.4.9a7.322,7.322,0,0,1,.8,2.5,1.087,1.087,0,0,1,.1.5,1.949,1.949,0,0,1,.1.8,11.329,11.329,0,0,1-.1,2.6c-.1.4-.2.7-.3,1.1a7.6,7.6,0,0,1-.4,1.1,21.158,21.158,0,0,1-1.1,2.1,9.22,9.22,0,0,1-.5.8,3.509,3.509,0,0,0-.5.8c-.2.3-.5.6-.7.9a5.5,5.5,0,0,1-.7.9c-.3.4-.7.8-1,1.2a90828.956,90828.956,0,0,1-1.4,1.4,6.469,6.469,0,0,1-.9.8l-.6.5a.367.367,0,0,1-.3.1h-4.4v5.6h5.5a4.971,4.971,0,0,0,3.3-1.2c.3-.3,1.7-1.5,3.4-3.3.1-.1.1-.1.2-.1l15.2-4.4C165.4,205.1,165.6,205.3,165.6,205.6Z" fill="#fff"/>
    </g>
  </g>
</svg>
