<svg id="Completed" xmlns="http://www.w3.org/2000/svg" width="94.156" height="94.156" viewBox="0 0 94.156 94.156">
  <path id="Path_4657" data-name="Path 4657" d="M47.078,0A47.078,47.078,0,1,0,94.156,47.078,47.078,47.078,0,0,0,47.078,0Zm0,86.31A39.232,39.232,0,1,1,86.31,47.078,39.232,39.232,0,0,1,47.078,86.31Z" fill="#56d098"/>
  <path id="Path_4658" data-name="Path 4658" d="M46.381,9.149,21.693,33.838l-9-9A3.923,3.923,0,1,0,7.149,30.39l11.77,11.769a3.923,3.923,0,0,0,5.547,0L51.929,14.7a3.923,3.923,0,1,0-5.548-5.548Z" transform="translate(17.539 23.385)" fill="#56d098"/>
</svg>
