<svg xmlns="http://www.w3.org/2000/svg" xmlns:xlink="http://www.w3.org/1999/xlink" width="434.6" height="100" viewBox="0 0 434.6 100">
  <defs>
    <clipPath id="clip-path">
      <rect id="Rectangle_2840" data-name="Rectangle 2840" width="434.6" height="100" transform="translate(83 150.1)"/>
    </clipPath>
  </defs>
  <g id="Artboard1" transform="translate(-83 -150.1)">
    <rect id="Rectangle_2839" data-name="Rectangle 2839" width="434.6" height="100" transform="translate(83 150.1)" fill="none"/>
    <g id="Group_3639" data-name="Group 3639" clip-path="url(#clip-path)">
      <g id="Group_3629" data-name="Group 3629" transform="translate(0 0.1)">
        <path id="Path_4753" data-name="Path 4753" d="M229.2,218.6a26.52,26.52,0,0,1-12.5-3,23.047,23.047,0,0,1-12.3-20.8,23.009,23.009,0,0,1,3.3-12.2,23.744,23.744,0,0,1,9-8.5,26.234,26.234,0,0,1,12.5-3,25.838,25.838,0,0,1,12.4,3,21.456,21.456,0,0,1,8.9,8.5,23.009,23.009,0,0,1,3.3,12.2,23.614,23.614,0,0,1-3.3,12.3,24.2,24.2,0,0,1-8.9,8.5A25.838,25.838,0,0,1,229.2,218.6Zm0-10.3a11.912,11.912,0,0,0,9.2-3.7,13.821,13.821,0,0,0,3.5-9.8c0-4.1-1.2-7.4-3.5-9.8a11.768,11.768,0,0,0-9.2-3.7,12.277,12.277,0,0,0-9.3,3.6c-2.3,2.4-3.4,5.7-3.4,9.8s1.1,7.4,3.4,9.8C222.2,207.1,225.3,208.3,229.2,208.3Z" fill="#04111d"/>
      </g>
      <g id="Group_3630" data-name="Group 3630" transform="translate(0 0.1)">
        <path id="Path_4754" data-name="Path 4754" d="M272,186.5a12.831,12.831,0,0,1,4.7-4.2,14.592,14.592,0,0,1,7.1-1.6,16.765,16.765,0,0,1,8.6,2.3,14.832,14.832,0,0,1,6,6.6,22.889,22.889,0,0,1,0,20,17.017,17.017,0,0,1-6,6.7,16.765,16.765,0,0,1-8.6,2.3,15.138,15.138,0,0,1-7.1-1.6,12.6,12.6,0,0,1-4.7-4.1V229H260.3V181.2H272Zm16.7,13.1a8.6,8.6,0,0,0-2.5-6.6,8.141,8.141,0,0,0-6-2.4,8.468,8.468,0,0,0-6,2.4,9.162,9.162,0,0,0-2.4,6.7,9.323,9.323,0,0,0,2.4,6.7,8.141,8.141,0,0,0,6,2.4,8.468,8.468,0,0,0,6-2.4A9.058,9.058,0,0,0,288.7,199.6Z" fill="#04111d"/>
      </g>
      <g id="Group_3631" data-name="Group 3631" transform="translate(0 0.1)">
        <path id="Path_4755" data-name="Path 4755" d="M342.8,199.1c0,1.1-.1,2.2-.2,3.3H316.1a7.488,7.488,0,0,0,2.3,5.3,7.312,7.312,0,0,0,5,1.8c2.9,0,5-1.2,6.1-3.6H342a15.294,15.294,0,0,1-3.5,6.5,17.066,17.066,0,0,1-6.2,4.6,20.655,20.655,0,0,1-8.4,1.7,21.671,21.671,0,0,1-10-2.3,16.03,16.03,0,0,1-6.8-6.6,20.311,20.311,0,0,1-2.5-10,20,20,0,0,1,2.4-10,16.03,16.03,0,0,1,6.8-6.6,21.8,21.8,0,0,1,10.1-2.3,21.216,21.216,0,0,1,9.9,2.2,15.914,15.914,0,0,1,6.7,6.4A19.477,19.477,0,0,1,342.8,199.1Zm-12-3a5.607,5.607,0,0,0-2.1-4.6,8.035,8.035,0,0,0-5.1-1.7,7.755,7.755,0,0,0-5,1.7,7.969,7.969,0,0,0-2.5,4.7h14.7Z" fill="#04111d"/>
      </g>
      <g id="Group_3632" data-name="Group 3632" transform="translate(0 0.1)">
        <path id="Path_4756" data-name="Path 4756" d="M372.3,180.9a14.083,14.083,0,0,1,10.7,4.2c2.7,2.8,4,6.6,4,11.5v21.5H375.4v-20a7.742,7.742,0,0,0-2-5.7,6.865,6.865,0,0,0-5.3-2,7.244,7.244,0,0,0-5.3,2,8.071,8.071,0,0,0-2,5.7v20H349V181.2h11.7v4.9a12.14,12.14,0,0,1,4.8-3.8A16.522,16.522,0,0,1,372.3,180.9Z" fill="#04111d"/>
      </g>
      <g id="Group_3633" data-name="Group 3633" transform="translate(0 0.1)">
        <path id="Path_4757" data-name="Path 4757" d="M412.5,218.6a25.93,25.93,0,0,1-9.5-1.7,15.222,15.222,0,0,1-6.7-4.9,13.75,13.75,0,0,1-2.6-7.8h12.5a6.071,6.071,0,0,0,1.9,4,5.941,5.941,0,0,0,4.1,1.3,7.115,7.115,0,0,0,4.1-1.1,3.934,3.934,0,0,0,1.5-3.2,3.631,3.631,0,0,0-1.2-2.8,9.474,9.474,0,0,0-2.9-1.8c-1.1-.5-2.8-1-4.9-1.7a45.818,45.818,0,0,1-7.6-2.8,13.449,13.449,0,0,1-5.1-4.1,11.309,11.309,0,0,1-2.1-7.1,11.768,11.768,0,0,1,4.9-10.1c3.2-2.5,7.5-3.7,12.7-3.7,5.3,0,9.6,1.2,12.8,3.7a12.864,12.864,0,0,1,5.2,10.2H416.9a4.725,4.725,0,0,0-1.7-3.5,5.843,5.843,0,0,0-4-1.3,5.137,5.137,0,0,0-3.4,1.1,3.615,3.615,0,0,0-1.3,3.1,3.772,3.772,0,0,0,2.2,3.5,43.054,43.054,0,0,0,6.8,2.7,62.813,62.813,0,0,1,7.5,2.9,14.194,14.194,0,0,1,5.1,4,10.615,10.615,0,0,1,2.1,6.8,13.151,13.151,0,0,1-2.1,7.2,14.6,14.6,0,0,1-6,5.2A22.238,22.238,0,0,1,412.5,218.6Z" fill="#04111d"/>
      </g>
      <g id="Group_3634" data-name="Group 3634" transform="translate(0 0.1)">
        <path id="Path_4758" data-name="Path 4758" d="M473.3,199.1c0,1.1-.1,2.2-.2,3.3H446.6a7.488,7.488,0,0,0,2.3,5.3,7.312,7.312,0,0,0,5,1.8c2.9,0,5-1.2,6.1-3.6h12.5a15.294,15.294,0,0,1-3.5,6.5,17.066,17.066,0,0,1-6.2,4.6,20.655,20.655,0,0,1-8.4,1.7,21.671,21.671,0,0,1-10-2.3,16.03,16.03,0,0,1-6.8-6.6,20.311,20.311,0,0,1-2.5-10,20,20,0,0,1,2.4-10,16.03,16.03,0,0,1,6.8-6.6,21.8,21.8,0,0,1,10.1-2.3,21.216,21.216,0,0,1,9.9,2.2,15.914,15.914,0,0,1,6.7,6.4A19.477,19.477,0,0,1,473.3,199.1Zm-12-3a5.607,5.607,0,0,0-2.1-4.6,8.035,8.035,0,0,0-5.1-1.7,7.755,7.755,0,0,0-5,1.7,7.969,7.969,0,0,0-2.5,4.7h14.7Z" fill="#04111d"/>
      </g>
      <g id="Group_3635" data-name="Group 3635" transform="translate(0 0.1)">
        <path id="Path_4759" data-name="Path 4759" d="M477.2,199.6a21.35,21.35,0,0,1,2.2-10,15.636,15.636,0,0,1,6.1-6.6,16.765,16.765,0,0,1,8.6-2.3,14.861,14.861,0,0,1,7.1,1.6,11.356,11.356,0,0,1,4.7,4.2v-5.2h11.7v36.9H505.9V213a12.4,12.4,0,0,1-4.8,4.2,14.592,14.592,0,0,1-7.1,1.6,15.942,15.942,0,0,1-14.6-9A22.481,22.481,0,0,1,477.2,199.6Zm28.6.1a8.975,8.975,0,0,0-2.5-6.7,8.073,8.073,0,0,0-5.9-2.4,8.468,8.468,0,0,0-6,2.4,8.919,8.919,0,0,0-2.4,6.6,9.162,9.162,0,0,0,2.4,6.7,8.575,8.575,0,0,0,11.9,0C505,204.8,505.8,202.5,505.8,199.7Z" fill="#04111d"/>
      </g>
      <g id="Group_3636" data-name="Group 3636" transform="translate(0 0.1)">
        <path id="Path_4760" data-name="Path 4760" d="M183,200.1a50,50,0,1,1-50-50A50.018,50.018,0,0,1,183,200.1Z" fill="#2081e2"/>
      </g>
      <g id="Group_3637" data-name="Group 3637" transform="translate(0 0.1)">
        <path id="Path_4761" data-name="Path 4761" d="M107.7,201.8l.2-.3,13-20.3a.441.441,0,0,1,.8.1c2.2,4.9,4,10.9,3.2,14.7a21.2,21.2,0,0,1-2.6,5.6,2.178,2.178,0,0,1-.5.8.52.52,0,0,1-.4.2H108A.553.553,0,0,1,107.7,201.8Z" fill="#fff"/>
      </g>
      <g id="Group_3638" data-name="Group 3638" transform="translate(0 0.1)">
        <path id="Path_4762" data-name="Path 4762" d="M165.6,205.6v3.2c0,.2-.1.3-.3.4-1,.4-4.5,2-5.9,4-3.7,5.1-6.5,12.4-12.7,12.4H120.6a16.751,16.751,0,0,1-16.7-16.8v-.3a.43.43,0,0,1,.4-.4H119a.536.536,0,0,1,.5.5,5.568,5.568,0,0,0,.5,2.8,5.084,5.084,0,0,0,4.6,2.8h7.2v-5.6h-7.1a.449.449,0,0,1-.4-.7,1.38,1.38,0,0,0,.3-.4c.7-1,1.6-2.4,2.6-4.1a24.191,24.191,0,0,0,1.8-3.6,4.876,4.876,0,0,0,.3-.7c.1-.4.3-.8.4-1.1l.3-.9a16.857,16.857,0,0,0,.3-3.3,7.084,7.084,0,0,0-.1-1.4c0-.5-.1-1-.1-1.5a5.852,5.852,0,0,0-.2-1.3,14.158,14.158,0,0,0-.4-2l-.1-.2a6.468,6.468,0,0,0-.4-1.3,37.308,37.308,0,0,0-1.4-4l-.6-1.5c-.3-.7-.6-1.4-.9-2-.1-.3-.3-.5-.4-.8s-.3-.6-.4-.9l-.3-.6-.9-1.6c-.1-.2.1-.5.3-.4l5.5,1.5.7.2.8.2.3.1V173a2.883,2.883,0,0,1,2.8-2.9,2.734,2.734,0,0,1,2.8,2.8v4.8l.6.2a.1.1,0,0,1,.1.1,3.807,3.807,0,0,0,.6.5,4.35,4.35,0,0,0,.7.6c.5.4,1.2,1,1.9,1.6.2.2.4.3.5.5a39.564,39.564,0,0,1,2.9,2.9c.3.3.5.6.8.9s.5.7.8,1c.3.4.7.9,1,1.3a4.348,4.348,0,0,1,.4.7c.4.6.7,1.2,1.1,1.8.1.3.3.6.4.9a7.322,7.322,0,0,1,.8,2.5,1.087,1.087,0,0,1,.1.5,1.949,1.949,0,0,1,.1.8,11.329,11.329,0,0,1-.1,2.6c-.1.4-.2.7-.3,1.1a7.6,7.6,0,0,1-.4,1.1,21.158,21.158,0,0,1-1.1,2.1,9.22,9.22,0,0,1-.5.8,3.509,3.509,0,0,0-.5.8c-.2.3-.5.6-.7.9a5.5,5.5,0,0,1-.7.9c-.3.4-.7.8-1,1.2a90828.956,90828.956,0,0,1-1.4,1.4,6.469,6.469,0,0,1-.9.8l-.6.5a.367.367,0,0,1-.3.1h-4.4v5.6h5.5a4.971,4.971,0,0,0,3.3-1.2c.3-.3,1.7-1.5,3.4-3.3.1-.1.1-.1.2-.1l15.2-4.4C165.4,205.1,165.6,205.3,165.6,205.6Z" fill="#fff"/>
      </g>
    </g>
  </g>
</svg>
